<svg width="83" height="83" viewBox="0 0 83 83" fill="none" xmlns="http://www.w3.org/2000/svg">
<g clip-path="url(#clip0_80_1179)">
<rect x="15.8633" y="22.0898" width="9.70522" height="38.8213" rx="0.271834" fill="#010B1B"/>
<path d="M31.5348 15.9755C31.586 15.9231 31.6561 15.8936 31.7294 15.8936H40.675C40.9156 15.8936 41.0376 16.183 40.8696 16.3552L35.3536 22.0084C35.3024 22.0608 35.2323 22.0904 35.159 22.0904H26.2134C25.9728 22.0904 25.8508 21.8009 26.0188 21.6287L31.5348 15.9755Z" fill="#010B1B"/>
<path d="M53.027 15.9755C53.0782 15.9231 53.1483 15.8936 53.2216 15.8936H62.1672C62.4078 15.8936 62.5298 16.183 62.3618 16.3552L56.8458 22.0084C56.7946 22.0608 56.7245 22.0904 56.6512 22.0904H47.7056C47.465 22.0904 47.343 21.8009 47.511 21.6287L53.027 15.9755Z" fill="#010B1B"/>
<path d="M35.3529 60.9926C35.3017 60.9402 35.2315 60.9106 35.1583 60.9106H26.2127C25.9721 60.9106 25.8501 61.2001 26.0181 61.3723L31.5341 67.0255C31.5853 67.0779 31.6554 67.1074 31.7287 67.1074H40.6743C40.9149 67.1074 41.0369 66.818 40.8689 66.6458L35.3529 60.9926Z" fill="#010B1B"/>
<path d="M52.4642 67.6504C52.413 67.5979 52.3429 67.5684 52.2696 67.5684H43.324C43.0834 67.5684 42.9614 67.8578 43.1294 68.03L48.6454 73.6832C48.6966 73.7356 48.7667 73.7652 48.84 73.7652H57.7856C58.0262 73.7652 58.1482 73.4757 57.9802 73.3035L52.4642 67.6504Z" fill="#010B1B"/>
<path d="M56.847 61.4536C56.7958 61.4011 56.7257 61.3716 56.6524 61.3716H47.7068C47.4662 61.3716 47.3442 61.6611 47.5122 61.8333L53.0282 67.4864C53.0794 67.5388 53.1496 67.5684 53.2228 67.5684H62.1684C62.409 67.5684 62.531 67.2789 62.363 67.1067L56.847 61.4536Z" fill="#010B1B"/>
<path d="M48.6462 9.77877C48.6973 9.72634 48.7675 9.69678 48.8407 9.69678H57.7864C58.0269 9.69678 58.1489 9.98627 57.9809 10.1585L52.4649 15.8116C52.4138 15.864 52.3436 15.8936 52.2704 15.8936H43.3247C43.0842 15.8936 42.9622 15.6041 43.1302 15.4319L48.6462 9.77877Z" fill="#010B1B"/>
<path d="M79.9346 21.4256C74.0168 25.6028 53.7107 38.0186 53.9428 39.9911C55.5673 41.2675 65.0821 40.6874 68.6792 40.8034L68.6792 42.3118C65.0821 42.4279 55.4512 41.8477 53.8268 43.1241C53.4787 45.2127 73.9008 57.5124 79.8186 61.5736L79.0063 62.85C72.7404 58.9048 53.1306 45.4448 51.5061 46.257C51.6221 48.3457 55.6833 54.9597 57.0757 57.9766L55.7993 58.6728C54.0588 55.8879 50.6938 47.6495 48.7212 47.1853C46.6326 47.3014 42.6874 68.5357 41.0629 75.0337L39.6705 74.6856C41.0629 68.0716 46.4005 47.0693 45.1242 45.7929C43.4997 46.257 39.5545 50.6664 37.5819 52.4069L36.5376 51.3626C38.2781 49.506 43.4997 45.3288 43.4997 43.7043C42.8034 41.7317 6.16334 42.5439 -0.10254 42.3119L-0.102541 40.8034C6.16334 40.6874 42.8034 41.3836 43.4997 39.411C43.4997 37.6705 38.2781 33.6092 36.5376 31.7527L37.5819 30.7084C39.5545 32.3329 43.4997 36.8582 45.2402 37.2063C46.4005 35.8139 41.0629 14.9276 39.7865 8.31362L41.179 7.96551C42.8034 14.4635 46.7486 35.8139 48.9533 35.9299C50.9259 35.4658 54.4069 27.3433 56.0314 24.4425L57.3078 25.1387C55.9154 28.0396 51.7381 34.8856 51.8542 36.9742C53.4787 37.5544 72.9725 24.2104 79.2384 20.2652L79.9346 21.4256Z" fill="#D2A213"/>
</g>
<defs>
<clipPath id="clip0_80_1179">
<rect width="83" height="83" fill="white"/>
</clipPath>
</defs>
</svg>
