<svg width="92" height="92" viewBox="0 0 92 92" fill="none" xmlns="http://www.w3.org/2000/svg">
<g clip-path="url(#clip0_114_1440)">
<g clip-path="url(#clip1_114_1440)">
<rect x="8.67188" y="17.7" width="14.0693" height="56.2778" rx="0.440802" fill="#010B1B"/>
<path d="M31.3798 8.85049C31.4627 8.76547 31.5765 8.71753 31.6953 8.71753H44.5328C44.9229 8.71753 45.1208 9.18696 44.8483 9.46617L36.9432 17.5678C36.8602 17.6529 36.7465 17.7008 36.6277 17.7008H23.7901C23.4 17.7008 23.2022 17.2314 23.4746 16.9522L31.3798 8.85049Z" fill="#010B1B"/>
<path d="M62.5341 8.85049C62.617 8.76547 62.7308 8.71753 62.8496 8.71753H75.6871C76.0772 8.71753 76.2751 9.18696 76.0026 9.46617L68.0975 17.5678C68.0145 17.6529 67.9008 17.7008 67.782 17.7008H54.9444C54.5543 17.7008 54.3565 17.2314 54.6289 16.9522L62.5341 8.85049Z" fill="#010B1B"/>
<path d="M36.9405 74.1105C36.8576 74.0255 36.7438 73.9775 36.625 73.9775H23.7875C23.3974 73.9775 23.1996 74.447 23.472 74.7262L31.3771 82.8278C31.4601 82.9129 31.5739 82.9608 31.6926 82.9608H44.5302C44.9203 82.9608 45.1181 82.4914 44.8457 82.2122L36.9405 74.1105Z" fill="#010B1B"/>
<path d="M61.7491 83.7616C61.6662 83.6766 61.5524 83.6287 61.4336 83.6287H48.5961C48.206 83.6287 48.0082 84.0981 48.2806 84.3773L56.1857 92.479C56.2687 92.564 56.3824 92.6119 56.5012 92.6119H69.3388C69.7289 92.6119 69.9267 92.1425 69.6543 91.8633L61.7491 83.7616Z" fill="#010B1B"/>
<path d="M68.0987 74.7785C68.0158 74.6934 67.902 74.6455 67.7833 74.6455H54.9457C54.5556 74.6455 54.3578 75.1149 54.6302 75.3942L62.5353 83.4958C62.6183 83.5808 62.7321 83.6288 62.8508 83.6288H75.6884C76.0785 83.6288 76.2763 83.1593 76.0039 82.8801L68.0987 74.7785Z" fill="#010B1B"/>
<path d="M56.1845 -0.132667C56.2674 -0.217685 56.3812 -0.265625 56.5 -0.265625H69.3375C69.7276 -0.265625 69.9254 0.203807 69.653 0.483021L61.7479 8.58469C61.6649 8.66971 61.5511 8.71765 61.4324 8.71765H48.5948C48.2047 8.71765 48.0069 8.24821 48.2793 7.969L56.1845 -0.132667Z" fill="#010B1B"/>
<path d="M101.556 12.3148C92.9774 19.0886 63.5404 39.2217 63.8768 42.4205C66.2317 44.4902 80.0251 43.5494 85.2397 43.7376L85.2397 46.1837C80.0251 46.3718 66.0635 45.431 63.7086 47.5008C63.2039 50.8877 92.8092 70.8327 101.388 77.4183L100.21 79.488C91.127 73.0906 62.6993 51.264 60.3444 52.5811C60.5126 55.968 66.4 66.6931 68.4185 71.5853L66.5682 72.7143C64.045 68.1984 59.1669 54.839 56.3073 54.0864C53.2795 54.2746 47.5603 88.7079 45.2053 99.2449L43.1868 98.6804C45.2053 87.9553 52.9431 53.8982 51.0927 51.8285C48.7378 52.5811 43.0186 59.7312 40.159 62.5536L38.6451 60.8602C41.1682 57.8496 48.7378 51.0758 48.7378 48.4416C47.7285 45.2429 -5.38729 46.56 -14.4707 46.1837L-14.4707 43.7376C-5.38729 43.5494 47.7285 44.6784 48.7378 41.4797C48.7378 38.6573 41.1682 32.0716 38.6451 29.0611L40.159 27.3676C43.0186 30.0019 48.7378 37.3401 51.2609 37.9046C52.943 35.6467 45.2053 1.77783 43.355 -8.9473L45.3735 -9.51179C47.7285 1.02519 53.4477 35.6467 56.6437 35.8349C59.5033 35.0822 64.5496 21.911 66.9046 17.207L68.7549 18.3359C66.7364 23.04 60.6808 34.1414 60.849 37.5283C63.2039 38.4691 91.4635 16.8307 100.547 10.4332L101.556 12.3148Z" fill="#D2A213"/>
</g>
</g>
<defs>
<clipPath id="clip0_114_1440">
<rect width="91.6775" height="91.6775" fill="white"/>
</clipPath>
<clipPath id="clip1_114_1440">
<rect width="120.322" height="120.322" fill="white" transform="translate(-14.3223 -14.3223)"/>
</clipPath>
</defs>
</svg>
