<svg width="92" height="92" viewBox="0 0 92 92" fill="none" xmlns="http://www.w3.org/2000/svg">
<g clip-path="url(#clip0_114_1441)">
<g clip-path="url(#clip1_114_1441)">
<rect x="8.67188" y="17.7002" width="14.0694" height="56.2781" rx="0.440804" fill="#BDC5D1"/>
<path d="M31.3798 8.85073C31.4628 8.76571 31.5765 8.71777 31.6953 8.71777H44.5329C44.923 8.71777 45.1209 9.18721 44.8484 9.46642L36.9432 17.5681C36.8603 17.6531 36.7465 17.7011 36.6277 17.7011H23.7901C23.4 17.7011 23.2022 17.2317 23.4746 16.9524L31.3798 8.85073Z" fill="#BDC5D1"/>
<path d="M62.5341 8.85073C62.6171 8.76571 62.7308 8.71777 62.8496 8.71777H75.6872C76.0773 8.71777 76.2752 9.18721 76.0027 9.46642L68.0975 17.5681C68.0146 17.6531 67.9008 17.7011 67.782 17.7011H54.9444C54.5543 17.7011 54.3565 17.2317 54.6289 16.9524L62.5341 8.85073Z" fill="#BDC5D1"/>
<path d="M36.9405 74.111C36.8575 74.026 36.7438 73.978 36.625 73.978H23.7874C23.3973 73.978 23.1995 74.4475 23.4719 74.7267L31.3771 82.8284C31.46 82.9134 31.5738 82.9613 31.6926 82.9613H44.5302C44.9203 82.9613 45.1181 82.4919 44.8457 82.2127L36.9405 74.111Z" fill="#BDC5D1"/>
<path d="M61.7491 83.7621C61.6661 83.6771 61.5524 83.6292 61.4336 83.6292H48.596C48.2059 83.6292 48.0081 84.0986 48.2805 84.3778L56.1857 92.4795C56.2686 92.5645 56.3824 92.6125 56.5012 92.6125H69.3388C69.7289 92.6125 69.9267 92.143 69.6543 91.8638L61.7491 83.7621Z" fill="#BDC5D1"/>
<path d="M68.0987 74.7787C68.0158 74.6937 67.902 74.6458 67.7832 74.6458H54.9456C54.5555 74.6458 54.3577 75.1152 54.6301 75.3944L62.5353 83.4961C62.6182 83.5811 62.732 83.6291 62.8508 83.6291H75.6884C76.0785 83.6291 76.2763 83.1596 76.0039 82.8804L68.0987 74.7787Z" fill="#BDC5D1"/>
<path d="M56.1845 -0.132667C56.2675 -0.217685 56.3812 -0.265625 56.5 -0.265625H69.3376C69.7277 -0.265625 69.9255 0.203809 69.6531 0.483024L61.7479 8.58473C61.665 8.66975 61.5512 8.71769 61.4324 8.71769H48.5948C48.2047 8.71769 48.0069 8.24825 48.2793 7.96904L56.1845 -0.132667Z" fill="#BDC5D1"/>
<path d="M101.557 12.3146C92.9779 19.0884 63.5407 39.2217 63.8771 42.4204C66.2321 44.4902 80.0255 43.5494 85.2401 43.7376L85.2401 46.1837C80.0255 46.3718 66.0639 45.431 63.7089 47.5008C63.2043 50.8877 92.8096 70.8328 101.388 77.4184L100.211 79.4882C91.1275 73.0907 62.6997 51.264 60.3447 52.5811C60.5129 55.968 66.4003 66.6932 68.4189 71.5854L66.5685 72.7144C64.0454 68.1985 59.1672 54.8391 56.3076 54.0864C53.2798 54.2746 47.5606 88.7081 45.2056 99.2451L43.1871 98.6806C45.2056 87.9554 52.9434 53.8983 51.093 51.8285C48.7381 52.5811 43.0188 59.7313 40.1592 62.5537L38.6453 60.8602C41.1685 57.8497 48.7381 51.0759 48.7381 48.4416C47.7288 45.2429 -5.38725 46.56 -14.4707 46.1837L-14.4707 43.7376C-5.38725 43.5494 47.7288 44.6784 48.7381 41.4796C48.7381 38.6572 41.1685 32.0716 38.6453 29.061L40.1592 27.3676C43.0188 30.0018 48.738 37.3401 51.2612 37.9046C52.9434 35.6466 45.2056 1.77764 43.3553 -8.94755L45.3738 -9.51204C47.7288 1.02498 53.448 35.6467 56.644 35.8348C59.5036 35.0822 64.55 21.9109 66.905 17.2069L68.7553 18.3358C66.7367 23.0398 60.6811 34.1413 60.8493 37.5282C63.2043 38.4691 91.464 16.8305 100.547 10.433L101.557 12.3146Z" fill="#D2A213"/>
</g>
</g>
<defs>
<clipPath id="clip0_114_1441">
<rect width="91.6775" height="91.6775" fill="white"/>
</clipPath>
<clipPath id="clip1_114_1441">
<rect width="120.323" height="120.323" fill="white" transform="translate(-14.3223 -14.3225)"/>
</clipPath>
</defs>
</svg>
